<?xml version="1.0" encoding="UTF-8"?>
<svg width="900px" height="900px" viewBox="0 0 900 900" version="1.1" xmlns="http://www.w3.org/2000/svg" xmlns:xlink="http://www.w3.org/1999/xlink">
    <title>jhin</title>
    <g id="jhin" stroke="none" stroke-width="1" fill="none" fill-rule="evenodd">
        <g id="Group" transform="translate(74.223328, 125.000000)" fill="#3E6FDB">
            <path d="M224.929585,64.9942445 L472.323538,40.6423426 C478.919079,39.9931191 484.792121,44.813562 485.441345,51.4091033 C485.523734,52.2460992 485.517901,53.0894375 485.423944,53.9252137 L427.014953,573.488846 C426.398759,578.970061 422.125435,583.325336 416.656912,584.045527 L171.433998,616.3408 C164.863318,617.206143 158.83523,612.581053 157.969887,606.010373 C157.845881,605.068776 157.834094,604.115786 157.934775,603.17141 L214.172727,75.6644076 C214.77581,70.0075434 219.268026,65.5515327 224.929585,64.9942445 Z" id="Rectangle" transform="translate(321.699521, 328.760615) rotate(-45.000000) translate(-321.699521, -328.760615) "></path>
            <path d="M588.724456,12.0645168 L735.585526,199.601393 C739.671664,204.81926 738.754216,212.361646 733.536349,216.447784 C731.424672,218.101448 728.819866,219 726.137742,219 L432.415602,219 C425.788185,219 420.415602,213.627417 420.415602,207 C420.415602,204.317876 421.314154,201.71307 422.967819,199.601393 L569.828889,12.0645168 C573.915026,6.84664993 581.457412,5.92920221 586.675279,10.0153399 C587.438611,10.6131093 588.126687,11.3011845 588.724456,12.0645168 Z" id="Triangle"></path>
        </g>
    </g>
</svg>